<?xml version="1.0" encoding="UTF-8" standalone="no"?>
<!-- Created with Inkscape (http://www.inkscape.org/) -->

<svg
   width="82.500198mm"
   height="18.539865mm"
   viewBox="0 0 82.500198 18.539865"
   version="1.1"
   id="svg1"
   inkscape:version="1.4.3 (0d15f750, 2025-12-25)"
   sodipodi:docname="logotipo-sigma-edge.svg"
   xmlns:inkscape="http://www.inkscape.org/namespaces/inkscape"
   xmlns:sodipodi="http://sodipodi.sourceforge.net/DTD/sodipodi-0.dtd"
   xmlns="http://www.w3.org/2000/svg"
   xmlns:svg="http://www.w3.org/2000/svg">
  <sodipodi:namedview
     id="namedview1"
     pagecolor="#ffffff"
     bordercolor="#000000"
     borderopacity="0.25"
     inkscape:showpageshadow="2"
     inkscape:pageopacity="0.0"
     inkscape:pagecheckerboard="0"
     inkscape:deskcolor="#d1d1d1"
     inkscape:document-units="mm"
     inkscape:zoom="0.89887065"
     inkscape:cx="176.33238"
     inkscape:cy="-33.931467"
     inkscape:window-width="2560"
     inkscape:window-height="1306"
     inkscape:window-x="0"
     inkscape:window-y="30"
     inkscape:window-maximized="1"
     inkscape:current-layer="layer1" />
  <defs
     id="defs1">
    <linearGradient
       x1="0"
       y1="0"
       x2="1"
       y2="0"
       gradientUnits="userSpaceOnUse"
       gradientTransform="matrix(23.279459,0,0,-23.279459,89.482819,4630.2998)"
       spreadMethod="pad"
       id="linearGradient1557">
      <stop
         style="stop-opacity:1;stop-color:#868686"
         offset="0"
         id="stop1553" />
      <stop
         style="stop-opacity:1;stop-color:#868686"
         offset="0.143319"
         id="stop1554" />
      <stop
         style="stop-opacity:1;stop-color:#d0d0d0"
         offset="0.7338602"
         id="stop1555" />
      <stop
         style="stop-opacity:1;stop-color:#d0d0d0"
         offset="0.902005"
         id="stop1556" />
      <stop
         style="stop-opacity:1;stop-color:#d0d0d0"
         offset="1"
         id="stop1557" />
    </linearGradient>
    <linearGradient
       x1="0"
       y1="0"
       x2="1"
       y2="0"
       gradientUnits="userSpaceOnUse"
       gradientTransform="matrix(23.279459,0,0,-23.279459,89.473175,4609.022)"
       spreadMethod="pad"
       id="linearGradient1562">
      <stop
         style="stop-opacity:1;stop-color:#868686"
         offset="0"
         id="stop1558" />
      <stop
         style="stop-opacity:1;stop-color:#868686"
         offset="0.143319"
         id="stop1559" />
      <stop
         style="stop-opacity:1;stop-color:#d0d0d0"
         offset="0.7338602"
         id="stop1560" />
      <stop
         style="stop-opacity:1;stop-color:#d0d0d0"
         offset="0.902005"
         id="stop1561" />
      <stop
         style="stop-opacity:1;stop-color:#d0d0d0"
         offset="1"
         id="stop1562" />
    </linearGradient>
    <linearGradient
       x1="0"
       y1="0"
       x2="1"
       y2="0"
       gradientUnits="userSpaceOnUse"
       gradientTransform="matrix(0,-17.14694,-17.14694,0,88.338707,4619.6606)"
       spreadMethod="pad"
       id="linearGradient1565">
      <stop
         style="stop-opacity:1;stop-color:#006dbd"
         offset="0"
         id="stop1563" />
      <stop
         style="stop-opacity:1;stop-color:#006dbd"
         offset="0.48992344"
         id="stop1564" />
      <stop
         style="stop-opacity:1;stop-color:#000000"
         offset="1"
         id="stop1565" />
    </linearGradient>
    <linearGradient
       x1="0"
       y1="0"
       x2="1"
       y2="0"
       gradientUnits="userSpaceOnUse"
       gradientTransform="matrix(0,-17.14694,-17.14694,0,92.549072,4619.6606)"
       spreadMethod="pad"
       id="linearGradient1568">
      <stop
         style="stop-opacity:1;stop-color:#006dbd"
         offset="0"
         id="stop1566" />
      <stop
         style="stop-opacity:1;stop-color:#006dbd"
         offset="0.58196776"
         id="stop1567" />
      <stop
         style="stop-opacity:1;stop-color:#000000"
         offset="1"
         id="stop1568" />
    </linearGradient>
    <linearGradient
       x1="0"
       y1="0"
       x2="1"
       y2="0"
       gradientUnits="userSpaceOnUse"
       gradientTransform="matrix(52.527527,0,0,-52.527527,70,4619.6255)"
       spreadMethod="pad"
       id="linearGradient1572">
      <stop
         style="stop-opacity:1;stop-color:#006dbd"
         offset="0"
         id="stop1571" />
      <stop
         style="stop-opacity:1;stop-color:#000000"
         offset="1"
         id="stop1572" />
    </linearGradient>
  </defs>
  <g
     inkscape:label="Camada 1"
     inkscape:groupmode="layer"
     id="layer1"
     transform="translate(-64.029167,-160.3375)">
    <g
       id="g3"
       transform="matrix(0.26458333,0,0,0.26458333,39.33488,150.72144)">
      <path
         id="path1557"
         d="m 89.483,4633.765 4.092,-4.15 h 16.451 l 2.736,-2.782 v 6.932 z"
         transform="matrix(1.3333333,0,0,-1.3333333,0,6230.88)"
         style="fill:url(#linearGradient1557);stroke:none" />
      <path
         id="path1562"
         d="M 110.017,4609.706 H 93.566 l -4.092,-4.151 h 23.279 v 6.933 z"
         transform="matrix(1.3333333,0,0,-1.3333333,0,6230.88)"
         style="fill:url(#linearGradient1562);stroke:none" />
      <path
         id="path1565"
         d="m 79.765,4633.765 13.911,-14.104 -13.911,-14.106 h 3.237 l 13.911,14.106 -13.911,14.104 z"
         transform="matrix(1.3333333,0,0,-1.3333333,0,6230.88)"
         style="fill:url(#linearGradient1565);stroke:none" />
      <path
         id="path1568"
         d="m 83.975,4633.765 13.911,-14.104 -13.911,-14.106 h 3.237 l 13.91,14.106 -13.91,14.104 z"
         transform="matrix(1.3333333,0,0,-1.3333333,0,6230.88)"
         style="fill:url(#linearGradient1568);stroke:none" />
      <path
         id="path1569"
         d="m 0,0 h -1.251 l 2.03,-2.059 -2.03,-2.058 H 0 l 2.03,2.058 z"
         style="fill:#0068a7;fill-opacity:1;fill-rule:nonzero;stroke:none"
         transform="matrix(1.3333333,0,0,-1.3333333,136.6956,68.587733)" />
      <path
         id="path1570"
         d="m 0,0 h -1.251 l 2.03,-2.059 -2.03,-2.058 H 0 l 2.03,2.058 z"
         style="fill:#0068a7;fill-opacity:1;fill-rule:nonzero;stroke:none"
         transform="matrix(1.3333333,0,0,-1.3333333,139.986,68.587733)" />
      <path
         id="path1571"
         d="m 0,0 h -1.251 l 2.03,-2.059 -2.03,-2.058 H 0 l 2.03,2.058 z"
         style="fill:#0068a7;fill-opacity:1;fill-rule:nonzero;stroke:none"
         transform="matrix(1.3333333,0,0,-1.3333333,143.27653,68.587733)" />
      <g
         id="g2">
        <path
           id="path1551"
           d="m 19.335891,-4.5556106 c 0,-1.8187673 -0.744141,-3.0989676 -2.226563,-3.8376579 -0.571289,-0.2501541 -1.274414,-0.4414484 -2.109375,-0.5768259 -0.83789,-0.1324345 -1.822265,-0.2001232 -2.953125,-0.2001232 -0.134765,0 -0.316406,0 -0.550781,0 -0.234375,0 -0.503906,0.00883 -0.808594,0.023544 h -0.316406 c -0.07031,0 -0.137695,0.00589 -0.199219,0.011772 -0.05566,0.00883 -0.105469,0.011772 -0.152344,0.011772 -0.4863277,0.023544 -0.9023434,0.035316 -1.2539059,0.035316 -0.336914,0 -0.5947265,0 -0.7734375,0 -1.5878906,0 -2.765625,-0.1589214 -3.5390625,-0.4826502 -0.9140625,-0.3678737 -1.3710937,-1.0123882 -1.3710937,-1.9306012 0,-0.918213 0.234375,-1.524468 0.703125,-1.824653 0.1933594,-0.132435 0.4628906,-0.238382 0.8085937,-0.317843 0.3427735,-0.08535 0.7734375,-0.129492 1.2890625,-0.129492 h 7.6640624 c 1.13086,0 1.983399,0.141264 2.554688,0.423791 0.380859,0.182465 0.65625,0.45322 0.820312,0.812265 0.169922,0.361987 0.263672,0.782835 0.28125,1.259599 0,0.135378 0.06445,0.200123 0.199219,0.200123 h 1.628906 c 0.117188,0 0.175781,-0.06475 0.175781,-0.200123 0,-3.05188 -1.787109,-4.579291 -5.355468,-4.579291 H 5.9296406 c -3.2519531,0 -4.875,1.445008 -4.875,4.33208 0,1.8069957 0.7060547,3.0430511 2.1210938,3.7081667 1.0546875,0.5032511 2.6513672,0.7534052 4.7929687,0.7534052 0.1640625,0 0.3779297,0 0.6445313,0 0.2636719,0 0.5742187,-0.00589 0.9257812,-0.023544 h 0.328125 c 0.070312,0 0.1289063,-0.00294 0.1757814,-0.011772 0.04687,-0.00589 0.08789,-0.011772 0.128906,-0.011772 h 0.84375 c 0.304688,-0.014715 0.56543,-0.023544 0.785156,-0.023544 0.210938,0 0.410157,0 0.597657,0 0.796875,0 1.49414,0.035316 2.097656,0.1059476 0.600586,0.064746 1.083984,0.1765793 1.453125,0.3413867 0.919922,0.3708166 1.382812,1.0594761 1.382812,2.0718644 0,0.4885362 -0.06738,0.9064406 -0.199218,1.2595993 -0.134766,0.3531587 -0.369141,0.6297997 -0.703125,0.824037 -0.251953,0.1500924 -0.56836,0.267812 -0.949219,0.3531587 -0.383789,0.08829 -0.861328,0.1294915 -1.429688,0.1294915 H 6.8671406 c -0.5859375,0 -1.0986328,-0.041202 -1.5351562,-0.1294915 -0.4306641,-0.085347 -0.7822266,-0.1942373 -1.0546875,-0.3296148 -0.3837891,-0.1795223 -0.65625,-0.4473343 -0.8203125,-0.800493 -0.1640625,-0.3531587 -0.2578125,-0.7769492 -0.28125,-1.2713714 0,-0.1559784 -0.076172,-0.2354391 -0.2226563,-0.2354391 H 1.3827656 c -0.140625,0 -0.2109375,0.079461 -0.2109375,0.2354391 0,1.5303544 0.5097657,2.6957781 1.5351563,3.4962711 0.8671875,0.72397538 2.0859375,1.08302005469 3.65625,1.08302005469 h 7.7578126 c 0.890625,0 1.655273,-0.0706317347 2.296875,-0.21189521469 0.638672,-0.14126348 1.160156,-0.37081664 1.558594,-0.69454544 0.905273,-0.7445763 1.359375,-1.9600308 1.359375,-3.6493065 z m 3.026367,4.55574715469 c 0.117187,0 0.175781,-0.0735747247 0.175781,-0.22366717469 V -15.609478 c 0,-0.164807 -0.05859,-0.247211 -0.175781,-0.247211 h -1.230469 c -0.134766,0 -0.199219,0.0824 -0.199219,0.247211 v 15.38594738 c 0,0.15009245 0.06445,0.22366717469 0.199219,0.22366717469 z M 42.380813,-7.710495 c -0.02344,-0.023544 -0.04395,-0.035316 -0.05859,-0.035316 h -9.082031 c -0.172852,0 -0.257813,0.08829 -0.257813,0.2589831 v 1.5538982 c 0,0.1648074 0.08496,0.2472111 0.257813,0.2472111 h 7.183593 c 0,0.7534052 -0.05859,1.371433 -0.175781,1.8481972 -0.117187,0.4708783 -0.27832,0.824037 -0.480469,1.0594761 -0.445312,0.5032511 -1.415039,0.7534052 -2.90625,0.7534052 H 31.0605 c -2.056641,0 -3.375,-0.3325578 -3.960937,-1.0006163 -0.500977,-0.6356856 -0.75,-2.0483204 -0.75,-4.2379044 0,-2.0718643 0.0498,-3.3814942 0.152343,-3.9318332 0.178711,-1.035932 0.585938,-1.745193 1.21875,-2.130724 0.351563,-0.188352 0.834961,-0.335501 1.453125,-0.447335 0.615235,-0.117719 1.385742,-0.176579 2.308594,-0.176579 h 5.378906 c 0.56836,0 1.066407,0.04414 1.488282,0.129492 0.427734,0.07946 0.785156,0.185408 1.066406,0.317842 0.389648,0.20601 0.662109,0.482651 0.820312,0.835809 0.155274,0.347273 0.240235,0.762234 0.257813,1.247828 0,0.150092 0.07324,0.223667 0.222656,0.223667 h 1.582031 c 0.131836,0 0.199219,-0.07357 0.199219,-0.223667 v -0.05886 c 0,-1.512697 -0.474609,-2.64869 -1.417969,-3.402096 -0.9375,-0.753405 -2.34375,-1.130107 -4.21875,-1.130107 h -5.226562 c -2.821289,0 -4.743164,0.503251 -5.765625,1.50681 h 0.02344 c -1.016601,1.006502 -1.523437,2.931217 -1.523437,5.7800306 0,1.2419414 0.01465,2.2602157 0.04687,3.0607087 0.03809,0.8004931 0.08789,1.4096918 0.152344,1.8246533 0.131835,0.6916025 0.354492,1.2772573 0.667968,1.7540215 0.319336,0.4708783 0.714844,0.8652388 1.183594,1.1771957 0.521484,0.3237288 1.177734,0.55328196 1.96875,0.69454544 0.796875,0.14126348 1.746094,0.21189521469 2.847656,0.21189521469 h 5.625 c 0.905274,0 1.681641,-0.0647457647 2.332032,-0.20012326469 0.64746,-0.13243451 1.183593,-0.34138674 1.605468,-0.6239137 0.820313,-0.58859779 1.327149,-1.45972259 1.523438,-2.61337439 0.07031,-0.3443297 0.120117,-0.8593528 0.152344,-1.5421263 0.0293,-0.6886594 0.04687,-1.5244684 0.04687,-2.5074267 0,-0.052974 -0.0088,-0.08829 -0.02344,-0.1059476 z m 24.45996,7.71063155469 c 0.117188,0 0.175782,-0.0735747247 0.175782,-0.22366717469 V -15.609478 c 0,-0.164807 -0.05859,-0.247211 -0.175782,-0.247211 h -3.398437 c -0.08789,0 -0.146484,0.01766 -0.175781,0.04709 L 55.696242,-2.8839928 48.360305,-15.833145 c 0,0 -0.0088,-0.0029 -0.02344,-0.01177 -0.01758,-0.0059 -0.04687,-0.01177 -0.09375,-0.01177 H 44.63374 c -0.149414,0 -0.222656,0.0824 -0.222656,0.247211 v 15.38594738 c 0,0.15009245 0.07324,0.22366717469 0.222656,0.22366717469 h 1.628906 c 0.146485,0 0.222657,-0.0735747247 0.222657,-0.22366717469 V -14.173299 h 0.445312 l 8.097656,14.14989164 c 0,0 0.0059,0.005886 0.02344,0.01177196 0.01465,0.00882897 0.03809,0.0117719547 0.07031,0.0117719547 h 1.078125 c 0.08496,0 0.143555,-0.0147149447 0.175782,-0.0470878247 l 8.16797,-14.12634773 h 0.46875 v 13.94976838 c 0,0.15009245 0.07617,0.22366717469 0.234375,0.22366717469 z m 19.863282,0 c 0.131836,0 0.199218,-0.0735747247 0.199218,-0.22366717469 0,0 0,-0.005886 0,-0.0235439 0,-0.0382589 -0.0088,-0.0735747 -0.02344,-0.10594761 v 0.0470878 L 78.96968,-15.809601 c -0.01758,-0.01471 -0.0293,-0.02649 -0.03516,-0.03532 -0.0088,-0.0059 -0.04102,-0.01177 -0.09375,-0.01177 h -2.425781 c -0.07031,0 -0.123047,0.01766 -0.152344,0.04709 l -7.863281,15.50366668 v -0.0470878 c -0.03223,0.0323729 -0.04687,0.0676887 -0.04687,0.10594761 0,0.0176579 0,0.0235439 0,0.0235439 0,0.15009245 0.07324,0.22366717469 0.222656,0.22366717469 h 1.757813 c 0.07617,0 0.117187,0 0.117187,0 0,-0.0147149447 0,-0.0382588547 0,-0.0706317347 v 0.02354391 l 1.851563,-3.68462244 h 10.546875 l 1.875,3.68462244 -0.02344,-0.02354391 c 0.01465,0.03237288 0.02344,0.05591679 0.02344,0.0706317347 0,0 0.04981,0 0.152344,0 z M 77.610305,-14.032036 l 4.183593,8.3227736 h -8.4375 z m 0,0"
           style="fill:#000000;fill-opacity:1;fill-rule:nonzero;stroke:none"
           aria-label="SIGMA "
           transform="matrix(1.3333333,0,0,1.327307,188.586,81.1756)" />
        <path
           id="path1552"
           d="m 14.800647,1.3655469e-4 c 0.131836,0 0.199219,-0.0735747247 0.199219,-0.22366717469 V -1.8245167 c 0,-0.1471495 -0.06738,-0.2236672 -0.199219,-0.2236672 H 3.2342409 V -7.1101252 H 14.425647 c 0.131836,0 0.199219,-0.085347 0.199219,-0.2589831 v -1.5774421 c 0,-0.1648074 -0.06738,-0.2472111 -0.199219,-0.2472111 H 3.2342409 V -13.773053 H 14.800647 c 0.131836,0 0.199219,-0.08535 0.199219,-0.258983 v -1.577442 c 0,-0.164807 -0.06738,-0.247211 -0.199219,-0.247211 H 1.4295534 c -0.149414,0 -0.2226562,0.0824 -0.2226562,0.247211 v 15.38594738 c 0,0.15009245 0.073242,0.22366717469 0.2226562,0.22366717469 z M 33.764514,-7.2631607 c 0,-1.1683666 -0.03516,-2.154268 -0.105468,-2.9547613 -0.06445,-0.800493 -0.137696,-1.442064 -0.222657,-1.930601 -0.322265,-1.300801 -1.03125,-2.248443 -2.132812,-2.837041 -1.072266,-0.579769 -2.680664,-0.871125 -4.828125,-0.871125 H 16.409046 c -0.158203,0 -0.234375,0.0824 -0.234375,0.247211 v 15.38594738 c 0,0.15009245 0.07617,0.22366717469 0.234375,0.22366717469 h 10.511718 c 1.420899,0 2.595704,-0.13243451469 3.527344,-0.40024652469 0.9375,-0.26486902 1.631836,-0.65040063 2.085938,-1.15365173 0.427734,-0.4855932 0.741211,-1.2007396 0.9375,-2.1424961 0.193359,-0.9417565 0.292968,-2.1307242 0.292968,-3.5669029 z m -2.003906,0 c 0,0.8004931 -0.02051,1.4891526 -0.05859,2.0600924 -0.03223,0.565054 -0.09961,0.9888444 -0.199218,1.2713714 -0.164063,0.7534052 -0.556641,1.2360554 -1.171875,1.4479506 -0.585938,0.2913559 -1.664063,0.4355624 -3.234375,0.4355624 H 18.213733 V -13.773053 h 8.484375 c 2.100586,0 3.480469,0.326672 4.136719,0.977073 0.615234,0.629799 0.925781,2.036548 0.925781,4.2261322 z M 53.551624,-7.710495 c -0.02344,-0.023544 -0.04395,-0.035316 -0.05859,-0.035316 h -9.082031 c -0.172852,0 -0.257813,0.08829 -0.257813,0.2589831 v 1.5538982 c 0,0.1648074 0.08496,0.2472111 0.257813,0.2472111 h 7.183594 c 0,0.7534052 -0.05859,1.371433 -0.175782,1.8481972 -0.117187,0.4708783 -0.27832,0.824037 -0.480468,1.0594761 -0.445313,0.5032511 -1.41504,0.7534052 -2.90625,0.7534052 h -5.800782 c -2.05664,0 -3.375,-0.3325578 -3.960937,-1.0006163 -0.500977,-0.6356856 -0.75,-2.0483204 -0.75,-4.2379044 0,-2.0718643 0.0498,-3.3814942 0.152344,-3.9318332 0.17871,-1.035932 0.585937,-1.745193 1.21875,-2.130724 0.351562,-0.188352 0.83496,-0.335501 1.453125,-0.447335 0.615234,-0.117719 1.385742,-0.176579 2.308593,-0.176579 h 5.378907 c 0.568359,0 1.066406,0.04414 1.488281,0.129492 0.427734,0.07946 0.785156,0.185408 1.066406,0.317842 0.389648,0.20601 0.662109,0.482651 0.820313,0.835809 0.155273,0.347273 0.240234,0.762234 0.257812,1.247828 0,0.150092 0.07324,0.223667 0.222656,0.223667 h 1.582032 c 0.131835,0 0.199218,-0.07357 0.199218,-0.223667 v -0.05886 c 0,-1.512697 -0.474609,-2.64869 -1.417968,-3.402096 -0.9375,-0.753405 -2.34375,-1.130107 -4.21875,-1.130107 H 42.80553 c -2.821289,0 -4.743164,0.503251 -5.765625,1.50681 h 0.02344 c -1.016602,1.006502 -1.523438,2.931217 -1.523438,5.7800306 0,1.2419414 0.01465,2.2602157 0.04687,3.0607087 0.03809,0.8004931 0.08789,1.4096918 0.152344,1.8246533 0.131836,0.6916025 0.354492,1.2772573 0.667969,1.7540215 0.319335,0.4708783 0.714843,0.8652388 1.183593,1.1771957 0.521485,0.3237288 1.177735,0.55328196 1.96875,0.69454544 0.796875,0.14126348 1.746094,0.21189521469 2.847657,0.21189521469 h 5.625 c 0.905273,0 1.68164,-0.0647457647 2.332031,-0.20012326469 0.647461,-0.13243451 1.183594,-0.34138674 1.605469,-0.6239137 0.820312,-0.58859779 1.327148,-1.45972259 1.523437,-2.61337439 0.07031,-0.3443297 0.120117,-0.8593528 0.152344,-1.5421263 0.0293,-0.6886594 0.04687,-1.5244684 0.04687,-2.5074267 0,-0.052974 -0.0088,-0.08829 -0.02344,-0.1059476 z M 69.175647,1.3655469e-4 c 0.131836,0 0.199219,-0.0735747247 0.199219,-0.22366717469 V -1.8245167 c 0,-0.1471495 -0.06738,-0.2236672 -0.199219,-0.2236672 H 57.609241 v -5.0619413 h 11.191406 c 0.131836,0 0.199219,-0.085347 0.199219,-0.2589831 v -1.5774421 c 0,-0.1648074 -0.06738,-0.2472111 -0.199219,-0.2472111 H 57.609241 v -4.5792915 h 11.566406 c 0.131836,0 0.199219,-0.08535 0.199219,-0.258983 v -1.577442 c 0,-0.164807 -0.06738,-0.247211 -0.199219,-0.247211 H 55.804553 c -0.149414,0 -0.222656,0.0824 -0.222656,0.247211 v 15.38594738 c 0,0.15009245 0.07324,0.22366717469 0.222656,0.22366717469 z m 0,0"
           style="fill:#0068a7;fill-opacity:1;fill-rule:nonzero;stroke:none"
           aria-label="EDGE"
           transform="matrix(1.3333333,0,0,1.327307,312.64471,81.1756)" />
        <path
           id="path1553"
           d="m 0.33937812,-2.4361295 c 0,-0.4767612 0.0996094,-0.9064349 0.3046875,-1.2831351 0.2109375,-0.3767001 0.49511718,-0.6709972 0.85546878,-0.882891 0.3662109,-0.2118939 0.7734375,-0.3178408 1.21875,-0.3178408 0.5390625,0 0.9990234,0.1294907 1.3828125,0.3884721 0.3896484,0.2589813 0.6738281,0.6209667 0.8554687,1.083013 H 4.3823469 C 4.2417219,-3.778124 4.024925,-4.0312194 3.7378156,-4.2136836 3.4565656,-4.4020337 3.1167219,-4.4962087 2.7182844,-4.4962087 c -0.3603516,0 -0.6855469,0.088289 -0.9726563,0.2589814 -0.28125,0.1648063 -0.5039062,0.4061299 -0.6679687,0.7180847 -0.16406253,0.3148978 -0.24609378,0.6768832 -0.24609378,1.0830131 0,0.4179017 0.0820313,0.78283 0.24609378,1.0947849 0.1640625,0.3060689 0.3867187,0.54150651 0.6679687,0.70631284 0.2871094,0.16480633 0.6123047,0.2472095 0.9726563,0.2472095 0.3984375,0 0.7382812,-0.0882891 1.0195312,-0.27075326 C 4.024925,-0.83809671 4.2417219,-1.0941351 4.3823469,-1.4237478 h 0.5742187 c -0.1816406,0.47087525 -0.4658203,0.83580356 -0.8554687,1.09478494 -0.3837891,0.25309544 -0.84375,0.37670019 -1.3828125,0.37670019 -0.4453125,0 -0.8525391,-0.10594693 -1.21875,-0.31784078 C 1.1391828,-0.48199731 0.85500312,-0.77629433 0.64406562,-1.1529945 0.4389875,-1.5296947 0.33937812,-1.9564254 0.33937812,-2.4361295 Z M 10.930198,-1.1529945 H 8.7153547 L 8.2934797,6.4980783e-4 H 7.7778547 L 9.5473859,-4.8022776 h 0.5507811 l 1.769531,4.80292740783 h -0.515625 z m -0.140625,-0.400244 -0.9609371,-2.6369013 -0.9609375,2.6369013 z m 4.535157,1.15364436 h 1.746093 V 6.4980783e-4 H 14.844261 V -4.861137 H 15.32473 Z M 20.445823,-4.861137 V 6.4980783e-4 H 19.965355 V -4.861137 Z m 5.578125,2.3543762 c 0.272461,0.047087 0.503907,0.1854071 0.691407,0.4120158 0.193359,0.2295517 0.292968,0.491476 0.292968,0.788716 0,0.2530955 -0.06445,0.4767612 -0.1875,0.67099724 -0.125976,0.197179 -0.310546,0.35315643 -0.550781,0.47087524 -0.234375,0.11183286 -0.515625,0.16480632783 -0.84375,0.16480632783 H 23.750511 V -4.861137 h 1.628906 c 0.492188,0 0.867188,0.1147758 1.125,0.3413845 0.257813,0.2295517 0.386719,0.5238487 0.386719,0.8828911 0,0.300183 -0.08203,0.5415065 -0.246094,0.7298566 -0.164062,0.1883501 -0.37207,0.3237267 -0.621094,0.400244 z m -1.792968,-0.200122 h 1.136718 c 0.328125,0 0.580079,-0.076517 0.761719,-0.2354376 0.178711,-0.1559774 0.269531,-0.3708143 0.269531,-0.6474535 0,-0.2648673 -0.09082,-0.4738182 -0.269531,-0.6239097 -0.18164,-0.1559774 -0.442383,-0.2354376 -0.785156,-0.2354376 H 24.23098 Z m 1.160156,2.29551678 c 0.351562,0 0.624023,-0.0824032 0.820312,-0.2472095 0.202149,-0.16480634 0.304688,-0.39435798 0.304688,-0.69454098 0,-0.2884111 -0.105469,-0.5209057 -0.316406,-0.694541 -0.205078,-0.1706922 -0.477539,-0.2589814 -0.820313,-0.2589814 H 24.23098 v 1.89527288 z M 32.674339,6.4980783e-4 31.479027,-2.0358856 H 30.576683 V 6.4980783e-4 H 30.096214 V -4.861137 h 1.453125 c 0.544922,0 0.960938,0.1294907 1.242188,0.3884721 0.28125,0.2589813 0.421875,0.6003659 0.421875,1.0241536 0,0.3531564 -0.10254,0.6562824 -0.304688,0.9064348 -0.205078,0.2442666 -0.503906,0.400244 -0.902344,0.4708753 L 33.260277,6.4980783e-4 Z M 30.576683,-2.4243577 h 0.984375 c 0.380859,0 0.667969,-0.094175 0.855469,-0.2825251 0.193359,-0.1883501 0.292968,-0.4355596 0.292968,-0.7416285 0,-0.3207838 -0.09375,-0.5679933 -0.28125,-0.7416285 -0.1875,-0.1706923 -0.480468,-0.2589814 -0.878906,-0.2589814 h -0.972656 z m 8.607422,1.2713632 H 36.969261 L 36.547386,6.4980783e-4 H 36.031761 L 37.801292,-4.8022776 h 0.550781 L 40.121605,6.4980783e-4 H 39.60598 Z m -0.140625,-0.400244 -0.960938,-2.6369013 -0.960937,2.6369013 z m 6.210937,1.16541624 c 0.398438,0 0.738281,-0.0882891 1.019531,-0.27075326 0.28711,-0.17952119 0.503907,-0.43555958 0.644532,-0.76517228 h 0.574218 c -0.164062,0.43261664 -0.418945,0.77400119 -0.761718,1.02415366 -0.345703,0.25309544 -0.758789,0.39730098 -1.242188,0.43555959 v 0.43555959 c 0.272461,-0.0176578 0.486328,0.0294297 0.644531,0.14126258 0.164063,0.1177188 0.246094,0.28546811 0.246094,0.50619088 0,0.2030649 -0.07617,0.3649283 -0.222656,0.4826471 -0.149414,0.1236048 -0.345703,0.1883501 -0.585938,0.1883501 H 44.879417 V 1.4721349 h 0.597656 c 0.169922,0 0.295899,-0.032373 0.375,-0.094175 0.07617,-0.055916 0.117188,-0.1412626 0.117188,-0.2589814 0,-0.22955168 -0.164063,-0.34138455 -0.492188,-0.34138455 H 45.148948 V 0.04773733 C 44.718284,0.03007951 44.328636,-0.08175336 43.977073,-0.29364721 43.63137,-0.51142701 43.361839,-0.80572403 43.16848,-1.1765383 c -0.196289,-0.3678713 -0.292969,-0.788716 -0.292969,-1.2595912 0,-0.4767612 0.09961,-0.9064349 0.304687,-1.2831351 0.210938,-0.3767001 0.495118,-0.6709972 0.855469,-0.882891 0.366211,-0.2118939 0.773438,-0.3178408 1.21875,-0.3178408 0.539063,0 0.999024,0.1294907 1.382813,0.3884721 0.389648,0.2589813 0.673828,0.6209667 0.855468,1.083013 H 46.91848 c -0.140625,-0.3296127 -0.357422,-0.5827081 -0.644532,-0.7651723 -0.28125,-0.1883501 -0.621093,-0.2825251 -1.019531,-0.2825251 -0.360351,0 -0.685547,0.088289 -0.972656,0.2589814 -0.28125,0.1648063 -0.503906,0.4061299 -0.667969,0.7180847 -0.164062,0.3148978 -0.246094,0.6768832 -0.246094,1.0830131 0,0.4179017 0.08203,0.78283 0.246094,1.0947849 0.164063,0.3060689 0.386719,0.54150651 0.667969,0.70631284 0.287109,0.16480633 0.612305,0.2472095 0.972656,0.2472095 z M 53.466331,-1.1529945 H 51.251487 L 50.829612,6.4980783e-4 H 50.313987 L 52.083519,-4.8022776 H 52.6343 l 1.769531,4.80292740783 h -0.515625 z m -0.140625,-0.400244 -0.960937,-2.6369013 -0.960938,2.6369013 z m -1.875,-3.6610549 c 0.0293,-0.2118939 0.09668,-0.3708143 0.199219,-0.4826472 0.108398,-0.1088899 0.249023,-0.1648063 0.421875,-0.1648063 0.07617,0 0.146484,0.017658 0.210937,0.047087 0.06152,0.032373 0.131836,0.076517 0.210938,0.1294907 0.07031,0.047088 0.128906,0.088289 0.175781,0.1177188 0.05274,0.023544 0.111328,0.035316 0.175781,0.035316 0.07617,0 0.143555,-0.026487 0.199219,-0.082403 0.05274,-0.052974 0.08789,-0.1324336 0.105469,-0.2354376 h 0.292969 c -0.01758,0.2060079 -0.08203,0.3649283 -0.199219,0.4826471 -0.111328,0.1118329 -0.251953,0.1648063 -0.421875,0.1648063 -0.08789,0 -0.161133,-0.014715 -0.222656,-0.047087 -0.06445,-0.02943 -0.137696,-0.073574 -0.222657,-0.1294907 -0.06445,-0.052973 -0.123046,-0.094175 -0.175781,-0.1177188 -0.04687,-0.023544 -0.09961,-0.035316 -0.152344,-0.035316 -0.172851,0 -0.269531,0.1059469 -0.292968,0.3178408 z m 8.109375,5.26203073 c -0.454101,0 -0.864258,-0.10594693 -1.230469,-0.31784078 -0.360351,-0.21189386 -0.644531,-0.50619088 -0.855468,-0.88289105 -0.210938,-0.3767002 -0.316407,-0.8034309 -0.316407,-1.283135 0,-0.4767612 0.105469,-0.9064349 0.316407,-1.2831351 0.210937,-0.3767001 0.495117,-0.6709972 0.855468,-0.882891 0.366211,-0.2118939 0.776368,-0.3178408 1.230469,-0.3178408 0.451172,0 0.861328,0.1059469 1.230469,0.3178408 0.366211,0.2118938 0.65625,0.5061909 0.867187,0.882891 0.210938,0.3767002 0.316407,0.8063739 0.316407,1.2831351 0,0.4797041 -0.105469,0.9064348 -0.316407,1.283135 -0.210937,0.37670017 -0.500976,0.67099719 -0.867187,0.88289105 -0.369141,0.21189385 -0.779297,0.31784078 -1.230469,0.31784078 z m 0,-0.42378771 c 0.357422,0 0.682617,-0.0824032 0.972656,-0.2472095 0.28711,-0.16480633 0.515625,-0.40318692 0.679688,-0.71808472 0.169922,-0.3119549 0.257812,-0.6768832 0.257812,-1.0947849 0,-0.4061299 -0.08789,-0.7681153 -0.257812,-1.0830131 -0.164063,-0.3119548 -0.392578,-0.5532784 -0.679688,-0.7180847 -0.290039,-0.1648064 -0.615234,-0.2472095 -0.972656,-0.2472095 -0.360351,0 -0.685547,0.082403 -0.972656,0.2472095 -0.290039,0.1648063 -0.521484,0.4061299 -0.691406,0.7180847 -0.164063,0.3148978 -0.246094,0.6768832 -0.246094,1.0830131 0,0.4179017 0.08203,0.78283 0.246094,1.0947849 0.169922,0.3148978 0.401367,0.55327839 0.691406,0.71808472 0.287109,0.16480633 0.612305,0.2472095 0.972656,0.2472095 z M 70.581566,-4.861137 c 0.539062,0 0.999023,0.100061 1.382812,0.294297 0.389649,0.197179 0.685547,0.4797042 0.890625,0.8475754 0.202149,0.3619854 0.304688,0.794602 0.304688,1.2949069 0,0.5032479 -0.102539,0.9388075 -0.304688,1.3066788 -0.205078,0.36198536 -0.500976,0.64156753 -0.890625,0.83580357 -0.383789,0.18835009 -0.84375,0.28252513783 -1.382812,0.28252513783 H 69.151878 V -4.861137 Z m 0,4.46154286 c 0.679687,0 1.195312,-0.17657822 1.546875,-0.52973464 0.357421,-0.35904242 0.539062,-0.85934732 0.539062,-1.49502892 0,-0.6356815 -0.181641,-1.1330435 -0.539062,-1.4950288 -0.351563,-0.3590424 -0.867188,-0.5415066 -1.546875,-0.5415066 h -0.949219 v 4.06129896 z m 6.155273,-4.06129896 v 1.8128697 h 1.851563 v 0.400244 h -1.851563 v 1.84818526 H 78.78762 V 6.4980783e-4 H 76.25637 V -4.8729089 h 2.53125 v 0.4120158 z M 86.524925,-4.861137 V 6.4980783e-4 H 86.044456 V -4.861137 Z M 93.497581,6.4980783e-4 H 93.005394 L 90.310081,-4.0959647 V 6.4980783e-4 H 89.829612 V -4.861137 h 0.480469 l 2.695313,4.08484267 V -4.861137 h 0.492187 z M 98.258323,0.04773733 c -0.322265,0 -0.603515,-0.05297346 -0.84375,-0.16480633 C 97.171409,-0.2259589 96.98098,-0.37899335 96.840355,-0.57617236 96.69973,-0.7792373 96.623558,-1.002903 96.617698,-1.2471696 h 0.515625 c 0.02344,0.2354376 0.128907,0.44438854 0.316407,0.62390972 0.1875,0.17363524 0.457031,0.25898138 0.808593,0.25898138 0.333985,0 0.597657,-0.0824032 0.785157,-0.2472095 0.193359,-0.17069227 0.292968,-0.38847207 0.292968,-0.6474534 0,-0.2118939 -0.05566,-0.3796432 -0.164062,-0.5061909 -0.102539,-0.1236048 -0.234375,-0.2177798 -0.398438,-0.2825252 -0.158203,-0.061802 -0.37207,-0.1294907 -0.644531,-0.2001219 -0.328125,-0.094175 -0.591797,-0.1795212 -0.785156,-0.2589814 -0.1875,-0.085346 -0.348633,-0.2148369 -0.480469,-0.3884721 -0.134765,-0.1795212 -0.199219,-0.4179018 -0.199219,-0.7180847 0,-0.2501525 0.06152,-0.4738182 0.1875,-0.6709972 0.131836,-0.1942361 0.316407,-0.3472705 0.550782,-0.4591034 0.240234,-0.1177188 0.515625,-0.1765782 0.820312,-0.1765782 0.445313,0 0.802735,0.1118329 1.078125,0.3296127 0.28125,0.2207227 0.445313,0.5061908 0.492188,0.8593473 h -0.539063 c -0.03223,-0.203065 -0.140625,-0.3796432 -0.328125,-0.5297347 -0.18164,-0.1559774 -0.430664,-0.2354376 -0.75,-0.2354376 -0.290039,0 -0.533203,0.07946 -0.726562,0.2354376 -0.196289,0.1500915 -0.292969,0.3590424 -0.292969,0.6239097 0,0.2118939 0.0498,0.3825861 0.152344,0.5061909 0.108398,0.1177188 0.240234,0.2118938 0.398437,0.2825251 0.164063,0.064745 0.38086,0.1294907 0.65625,0.200122 0.319336,0.094175 0.577149,0.1854071 0.773438,0.2707533 0.193359,0.088289 0.357422,0.2177798 0.492187,0.388472 0.131836,0.1736353 0.199219,0.4090729 0.199219,0.7063129 0,0.2295517 -0.06445,0.44438849 -0.1875,0.64745344 -0.117188,0.20600791 -0.292969,0.37081425 -0.527344,0.494419 -0.234375,0.12654772 -0.521484,0.18835009 -0.855469,0.18835009 z M 105.79934,-4.861137 v 0.4002439 h -1.34766 V 6.4980783e-4 h -0.48047 V -4.4608931 h -1.35937 V -4.861137 Z M 111.3511,6.4980783e-4 110.15578,-2.0358856 h -0.90234 V 6.4980783e-4 h -0.48047 V -4.861137 h 1.45313 c 0.54492,0 0.96093,0.1294907 1.24218,0.3884721 0.28125,0.2589813 0.42188,0.6003659 0.42188,1.0241536 0,0.3531564 -0.10254,0.6562824 -0.30469,0.9064348 -0.20508,0.2442666 -0.5039,0.400244 -0.90234,0.4708753 l 1.2539,2.07185100783 z M 109.25344,-2.4243577 h 0.98438 c 0.38085,0 0.66796,-0.094175 0.85546,-0.2825251 0.19336,-0.1883501 0.29297,-0.4355596 0.29297,-0.7416285 0,-0.3207838 -0.0937,-0.5679933 -0.28125,-0.7416285 -0.1875,-0.1706923 -0.48047,-0.2589814 -0.8789,-0.2589814 h -0.97266 z m 6.25195,-2.4367793 v 3.060689 c 0,0.4797042 0.11133,0.83580357 0.33985,1.07124119 0.23437,0.22955168 0.55078,0.34138455 0.94922,0.34138455 0.39843,0 0.70898,-0.11183287 0.9375,-0.34138455 0.22558,-0.22660871 0.33984,-0.58270809 0.33984,-1.07124119 v -3.060689 h 0.48047 v 3.0489171 c 0,0.6209668 -0.16406,1.08889903 -0.49219,1.40085388 -0.32226,0.3060689 -0.74414,0.45910335 -1.26562,0.45910335 -0.53321,0 -0.96094,-0.15303445 -1.28907,-0.45910335 -0.32226,-0.31195485 -0.48047,-0.77988708 -0.48047,-1.40085388 V -4.861137 Z m 11.08008,0.058859 V 6.4980783e-4 H 126.105 V -3.8369834 l -1.71093,3.83763320783 h -0.36329 L 122.31985,-3.8134396 V 6.4980783e-4 h -0.48047 V -4.8022776 h 0.5039 l 1.86329,4.16724584 1.86328,-4.16724584 z m 3.78223,0.3413845 v 1.8128697 h 1.85156 v 0.400244 h -1.85156 v 1.84818526 h 2.05078 V 6.4980783e-4 h -2.53125 V -4.8729089 h 2.53125 v 0.4120158 z m 8.87988,4.46154290783 h -0.49219 L 136.06008,-4.0959647 V 6.4980783e-4 h -0.48047 V -4.861137 h 0.48047 l 2.69531,4.08484267 V -4.861137 h 0.49219 z M 145.37942,-4.861137 v 0.4002439 h -1.34766 V 6.4980783e-4 h -0.48047 V -4.4608931 h -1.35937 V -4.861137 Z m 5.15332,4.90887433 c -0.4541,0 -0.86426,-0.10594693 -1.23047,-0.31784078 -0.36035,-0.21189386 -0.64453,-0.50619088 -0.85547,-0.88289105 -0.21094,-0.3767002 -0.31641,-0.8034309 -0.31641,-1.283135 0,-0.4767612 0.10547,-0.9064349 0.31641,-1.2831351 0.21094,-0.3767001 0.49512,-0.6709972 0.85547,-0.882891 0.36621,-0.2118939 0.77637,-0.3178408 1.23047,-0.3178408 0.45117,0 0.86133,0.1059469 1.23047,0.3178408 0.36621,0.2118938 0.65625,0.5061909 0.86718,0.882891 0.21094,0.3767002 0.31641,0.8063739 0.31641,1.2831351 0,0.4797041 -0.10547,0.9064348 -0.31641,1.283135 -0.21093,0.37670017 -0.50097,0.67099719 -0.86718,0.88289105 -0.36914,0.21189385 -0.7793,0.31784078 -1.23047,0.31784078 z m 0,-0.42378771 c 0.35742,0 0.68261,-0.0824032 0.97265,-0.2472095 0.28711,-0.16480633 0.51563,-0.40318692 0.67969,-0.71808472 0.16992,-0.3119549 0.25781,-0.6768832 0.25781,-1.0947849 0,-0.4061299 -0.0879,-0.7681153 -0.25781,-1.0830131 -0.16406,-0.3119548 -0.39258,-0.5532784 -0.67969,-0.7180847 -0.29004,-0.1648064 -0.61523,-0.2472095 -0.97265,-0.2472095 -0.36035,0 -0.68555,0.082403 -0.97266,0.2472095 -0.29004,0.1648063 -0.52148,0.4061299 -0.69141,0.7180847 -0.16406,0.3148978 -0.24609,0.6768832 -0.24609,1.0830131 0,0.4179017 0.082,0.78283 0.24609,1.0947849 0.16993,0.3148978 0.40137,0.55327839 0.69141,0.71808472 0.28711,0.16480633 0.61231,0.2472095 0.97266,0.2472095 z m 6.95801,0.42378771 c -0.32227,0 -0.60352,-0.05297346 -0.84375,-0.16480633 -0.24317,-0.1088899 -0.4336,-0.26192435 -0.57422,-0.45910336 -0.14063,-0.20306494 -0.2168,-0.42673064 -0.22266,-0.67099724 h 0.51563 c 0.0234,0.2354376 0.1289,0.44438854 0.3164,0.62390972 0.1875,0.17363524 0.45703,0.25898138 0.8086,0.25898138 0.33398,0 0.59765,-0.0824032 0.78515,-0.2472095 0.19336,-0.17069227 0.29297,-0.38847207 0.29297,-0.6474534 0,-0.2118939 -0.0557,-0.3796432 -0.16406,-0.5061909 -0.10254,-0.1236048 -0.23438,-0.2177798 -0.39844,-0.2825252 -0.1582,-0.061802 -0.37207,-0.1294907 -0.64453,-0.2001219 -0.32813,-0.094175 -0.5918,-0.1795212 -0.78516,-0.2589814 -0.1875,-0.085346 -0.34863,-0.2148369 -0.48047,-0.3884721 -0.13476,-0.1795212 -0.19921,-0.4179018 -0.19921,-0.7180847 0,-0.2501525 0.0615,-0.4738182 0.1875,-0.6709972 0.13183,-0.1942361 0.3164,-0.3472705 0.55078,-0.4591034 0.24023,-0.1177188 0.51562,-0.1765782 0.82031,-0.1765782 0.44531,0 0.80273,0.1118329 1.07812,0.3296127 0.28125,0.2207227 0.44532,0.5061908 0.49219,0.8593473 h -0.53906 c -0.0322,-0.203065 -0.14063,-0.3796432 -0.32813,-0.5297347 -0.18164,-0.1559774 -0.43066,-0.2354376 -0.75,-0.2354376 -0.29004,0 -0.5332,0.07946 -0.72656,0.2354376 -0.19629,0.1500915 -0.29297,0.3590424 -0.29297,0.6239097 0,0.2118939 0.0498,0.3825861 0.15235,0.5061909 0.10839,0.1177188 0.24023,0.2118938 0.39843,0.2825251 0.16407,0.064745 0.38086,0.1294907 0.65625,0.200122 0.31934,0.094175 0.57715,0.1854071 0.77344,0.2707533 0.19336,0.088289 0.35742,0.2177798 0.49219,0.388472 0.13183,0.1736353 0.19922,0.4090729 0.19922,0.7063129 0,0.2295517 -0.0645,0.44438849 -0.1875,0.64745344 -0.11719,0.20600791 -0.29297,0.37081425 -0.52735,0.494419 -0.23437,0.12654772 -0.52148,0.18835009 -0.85546,0.18835009 z m 0,0"
           style="fill:#868686;fill-opacity:1;fill-rule:nonzero;stroke:none"
           aria-label="CALIBRAÇÃO DE INSTRUMENTOS "
           transform="matrix(1.3333333,0,0,1.3273155,190.57093,94.6632)" />
        <path
           id="path1572"
           d="m 75.12,4635.247 c -9.843,-13.223 -4.951,-32.498 10.015,-39.418 v 0 c 13.049,-6.169 28.908,-0.423 34.952,12.688 v 0 c 4.496,9.368 2.649,21.223 -4.457,28.793 v 0 c -2.305,2.537 -5.109,4.62 -8.212,6.085 v 0 c -3.514,1.697 -7.304,2.508 -11.075,2.507 v 0 c -8.175,0 -16.259,-3.809 -21.223,-10.655 m 15.564,-38.351 c -10.445,2.682 -17.861,12.17 -17.861,22.966 v 0 c -0.133,9.813 6.139,18.954 15.229,22.584 v 0 c 9.274,3.794 20.062,1.533 27.358,-5.336 v 0 c 4.099,-5.271 6.162,-11.986 5.511,-18.569 v 0 c -0.242,-2.606 -0.885,-5.148 -1.911,-7.544 v 0 c -3.907,-9.124 -12.789,-14.86 -22.343,-14.859 v 0 c -1.978,0 -3.986,0.246 -5.983,0.758"
           transform="matrix(1.3333333,0,0,-1.3333333,0,6230.88)"
           style="fill:url(#linearGradient1572);stroke:none" />
      </g>
    </g>
  </g>
</svg>
